<svg width="28" height="31" viewBox="0 0 28 31" fill="none" xmlns="http://www.w3.org/2000/svg">
<path id="Vector" d="M13.1352 6.53637C12.6327 7.11349 11.6895 6.89535 11.4915 6.15621C11.3549 5.64644 10.8287 5.3397 10.3347 5.52523C8.36655 6.2643 6.70174 7.60315 5.53242 9.20393C5.52452 9.21475 5.52197 9.22855 5.52544 9.24149C5.52885 9.25422 5.52641 9.26783 5.51883 9.27862C4.581 10.6122 3.97713 12.0709 3.75374 13.6824C3.74961 13.7122 3.75232 13.7572 3.74353 13.7859C3.73359 13.8184 3.72829 13.8385 3.72501 13.8723C3.70361 14.093 3.63494 14.3255 3.60821 14.5475C3.60044 14.612 3.61066 14.6788 3.60713 14.7436C3.60287 14.8218 3.60741 14.9 3.60459 14.9782C3.59963 15.1161 3.61031 15.2683 3.62141 15.4078C3.6315 15.5345 3.61616 15.668 3.61765 15.795C3.61859 15.8745 3.63456 15.947 3.64165 16.0261C3.65258 16.1482 3.66139 16.2633 3.6711 16.3813C3.68499 16.5502 3.7157 16.7172 3.75956 16.8809C3.79578 17.1783 3.88342 17.5054 3.9602 17.792C4.46759 19.8478 5.61794 21.6865 7.26328 23.0854C7.94007 23.6487 8.06154 24.7562 7.4874 25.3925C6.92412 26.0693 5.88816 26.1281 5.21101 25.5635C3.0649 23.7715 1.55724 21.4157 0.844869 18.7571C0.835349 18.7216 0.784737 18.6983 0.785046 18.6615C0.785435 18.6154 0.797813 18.5815 0.790179 18.553C0.691667 18.1854 0.592805 17.8164 0.545721 17.4784C0.532945 17.4308 0.52454 17.3856 0.517957 17.3415C0.485752 17.1257 0.460566 16.9071 0.426892 16.6916C0.418262 16.6363 0.409768 16.5796 0.40329 16.5218C0.395903 16.4558 0.384624 16.3901 0.382564 16.3238C0.379297 16.2186 0.372582 16.112 0.381556 16.0071C0.391804 15.8873 0.403468 15.7476 0.401288 15.631C0.375939 15.3742 0.38194 15.0669 0.39715 14.7992C0.39724 14.7976 0.39733 14.796 0.397421 14.7944C0.410949 14.5573 0.427298 14.3192 0.439686 14.082C0.450145 13.8818 0.470416 13.6837 0.495452 13.4973C0.503125 13.4402 0.494973 13.3656 0.501626 13.3084C0.508354 13.2505 0.508617 13.2066 0.517581 13.149C0.837118 11.0959 1.60202 9.13601 2.84163 7.38382C2.85993 7.35796 2.88922 7.34002 2.90527 7.31272C2.9214 7.2853 2.95161 7.26696 2.97018 7.24113C3.14117 7.00343 3.33953 6.75908 3.52013 6.55138C3.5482 6.5191 3.55441 6.46823 3.59356 6.45097C3.61734 6.44049 3.64577 6.42659 3.66264 6.40681C5.20185 4.60173 7.15014 3.16968 9.51229 2.35433C9.99765 2.1868 10.2936 1.68024 10.1607 1.18428C9.96848 0.466997 10.6533 -0.175013 11.3567 0.0630158L13.8103 0.8933C15.3712 1.4215 15.8966 3.36482 14.8145 4.60759L13.1352 6.53637ZM18.1226 30.9089C18.1228 30.9091 18.1227 30.9094 18.1224 30.9093L14.4168 29.668L11.0829 28.5512C10.9053 28.4918 10.8456 28.2707 10.969 28.1299L14.1267 24.526C14.8746 23.6724 16.2684 23.984 16.5622 25.0802C16.5755 25.1301 16.6307 25.1736 16.6805 25.1598C18.9693 24.523 20.8339 23.1081 22.1616 21.281C22.1913 21.2296 22.2332 21.2184 22.2625 21.1656C22.4494 20.9019 22.6346 20.6373 22.7823 20.384C22.7891 20.3724 22.8002 20.3639 22.8132 20.3604C22.8261 20.357 22.8372 20.3485 22.8439 20.3368C23.3144 19.5175 23.6739 18.6005 23.9022 17.6758C23.9052 17.6633 23.9028 17.64 23.9082 17.6283C23.9202 17.6021 23.9402 17.5876 23.9458 17.5593C23.9914 17.3283 24.0292 17.0743 24.048 16.8464C24.0537 16.7769 24.0795 16.7018 24.0919 16.6332C24.1021 16.5769 24.0976 16.5258 24.1044 16.4689C24.1281 16.2706 24.1499 16.0678 24.1646 15.8349C24.2045 15.6336 24.1952 15.4206 24.1898 15.2155C24.1868 15.0991 24.1766 14.9785 24.1694 14.8688C24.177 14.7349 24.1441 14.612 24.1533 14.4791C24.1442 14.3408 24.1356 14.2019 24.116 14.066C24.0945 13.917 24.0856 13.7663 24.0531 13.6193C24.0365 13.544 24.0212 13.4667 24.0097 13.3905C23.9741 13.1561 23.9018 12.8862 23.8457 12.6768C23.3274 10.5804 22.1771 8.7417 20.4908 7.35231C19.8546 6.77816 19.7737 5.65977 20.3492 5.02319C20.9124 4.34639 21.9484 4.28757 22.6255 4.85215C24.7716 6.64419 26.2793 8.99994 26.9917 11.6585C27.1123 12.1086 27.1923 12.5696 27.2707 13.0296C27.3153 13.1959 27.303 13.3728 27.3311 13.5427C27.35 13.6569 27.3709 13.7672 27.3865 13.886C27.3968 13.9636 27.3861 14.0623 27.3971 14.1398C27.4063 14.2052 27.4143 14.2516 27.4174 14.3176C27.425 14.481 27.4418 14.6807 27.4445 14.8242C27.428 15.0923 27.453 15.3478 27.4377 15.6155C27.4301 15.7494 27.4212 15.8836 27.4245 16.058C27.4101 16.291 27.3825 16.5933 27.345 16.8774C27.3339 16.9609 27.3466 17.0568 27.3316 17.1398C27.3191 17.2085 27.2924 17.265 27.2789 17.3336C27.216 17.6534 27.1588 17.9943 27.0874 18.2823C27.0775 18.322 27.0771 18.3812 27.0615 18.4191C27.0527 18.4402 27.051 18.4476 27.046 18.4699C26.7711 19.6987 26.2992 20.8136 25.6583 21.9292C25.6426 21.9564 25.6144 21.9758 25.5984 22.0029C25.5825 22.03 25.5534 22.0497 25.5376 22.0769C25.3946 22.3245 25.2344 22.6002 25.0652 22.8614C24.9923 22.974 24.9362 23.1035 24.8342 23.1905C24.7794 23.2372 24.729 23.2893 24.6864 23.3473L24.2989 23.8737C24.2791 23.9005 24.249 23.9196 24.2319 23.9483C24.2165 23.9744 24.1864 23.9904 24.1669 24.0136C23.0094 25.3942 21.5725 26.5639 19.8925 27.4016C18.5902 28.051 17.7376 29.4723 18.1143 30.8779L18.1226 30.9089C18.1226 30.9089 18.1226 30.9089 18.1226 30.9089Z" fill="#464455"/>
</svg>
